# xmcd
#
# Track frame offsets:
#	150
#	24685
#	53348
#	82483
#	103238
#	131400
#	156660
#	174755
#
# Disc length: 2748 seconds
#
# Revision: 0
# Processed by: cddbd v1.4PL0 Copyright (c) Steve Scherf et al.
# Submitted via: OrangeCD 4.1
#
DISCID=660aba08
DTITLE=Joe Turner - Things That I Used To Do
DYEAR=1900
DGENRE=
TTITLE0=The Things That I Used To Do
TTITLE1=S.K. Blues
TTITLE2=Jelly Jelly Blues
TTITLE3=Hey Little Girl
TTITLE4=Shake It And Break It
TTITLE5=St. Louis Blues
TTITLE6=Oke-She-Moke-She-Pop
TTITLE7=My Train Rolled Up In Texas
EXTD=
EXTT0=
EXTT1=
EXTT2=
EXTT3=
EXTT4=
EXTT5=
EXTT6=
EXTT7=
PLAYORDER=
